<?xml version="1.0" encoding="UTF-8" standalone="no"?>
<svg
   height="48"
   viewBox="0 -960 960 960"
   width="48"
   version="1.1"
   id="svg1"
   sodipodi:docname="bell-lite.svg"
   inkscape:version="1.3.2 (091e20ef0f, 2023-11-25, custom)"
   xmlns:inkscape="http://www.inkscape.org/namespaces/inkscape"
   xmlns:sodipodi="http://sodipodi.sourceforge.net/DTD/sodipodi-0.dtd"
   xmlns="http://www.w3.org/2000/svg"
   xmlns:svg="http://www.w3.org/2000/svg">
  <defs
     id="defs1" />
  <sodipodi:namedview
     id="namedview1"
     pagecolor="#ffffff"
     bordercolor="#000000"
     borderopacity="0.25"
     inkscape:showpageshadow="2"
     inkscape:pageopacity="0.0"
     inkscape:pagecheckerboard="0"
     inkscape:deskcolor="#d1d1d1"
     inkscape:zoom="4.1197917"
     inkscape:cx="24.151707"
     inkscape:cy="52.793931"
     inkscape:window-width="1920"
     inkscape:window-height="1015"
     inkscape:window-x="0"
     inkscape:window-y="0"
     inkscape:window-maximized="1"
     inkscape:current-layer="svg1" />
  <path
     d="M160-200v-60h80v-304q0-84 49.5-150.5T420-798v-22q0-25 17.5-42.5T480-880q25 0 42.5 17.5T540-820v22q81 17 130.5 83.5T720-564v304h80v60H160Zm320-302Zm0 422q-33 0-56.5-23.5T400-160h160q0 33-23.5 56.5T480-80ZM300-260h360v-304q0-75-52.5-127.5T480-744q-75 0-127.5 52.5T300-564v304Z"
     id="path1"
     style="fill:#ffffff;fill-opacity:1" />
</svg>
