<?xml version="1.0" encoding="UTF-8" standalone="no"?>
<svg
   width="24"
   height="24"
   viewBox="0 0 24 24"
   version="1.1"
   id="svg1"
   sodipodi:docname="loading.svg"
   inkscape:version="1.3.2 (091e20ef0f, 2023-11-25, custom)"
   xmlns:inkscape="http://www.inkscape.org/namespaces/inkscape"
   xmlns:sodipodi="http://sodipodi.sourceforge.net/DTD/sodipodi-0.dtd"
   xmlns="http://www.w3.org/2000/svg"
   xmlns:svg="http://www.w3.org/2000/svg">
  <defs
     id="defs1" />
  <sodipodi:namedview
     id="namedview1"
     pagecolor="#ffffff"
     bordercolor="#000000"
     borderopacity="0.25"
     inkscape:showpageshadow="2"
     inkscape:pageopacity="0.0"
     inkscape:pagecheckerboard="0"
     inkscape:deskcolor="#d1d1d1"
     inkscape:zoom="16.479167"
     inkscape:cx="4.5815423"
     inkscape:cy="15.807838"
     inkscape:window-width="1920"
     inkscape:window-height="1015"
     inkscape:window-x="0"
     inkscape:window-y="0"
     inkscape:window-maximized="1"
     inkscape:current-layer="svg1" />
  <path
     d="M13.75 22c0 .966-.783 1.75-1.75 1.75s-1.75-.784-1.75-1.75.783-1.75 1.75-1.75 1.75.784 1.75 1.75zm-1.75-22c-1.104 0-2 .896-2 2s.896 2 2 2 2-.896 2-2-.896-2-2-2zm10 10.75c.689 0 1.249.561 1.249 1.25 0 .69-.56 1.25-1.249 1.25-.69 0-1.249-.559-1.249-1.25 0-.689.559-1.25 1.249-1.25zm-22 1.25c0 1.105.896 2 2 2s2-.895 2-2c0-1.104-.896-2-2-2s-2 .896-2 2zm19-8c.551 0 1 .449 1 1 0 .553-.449 1.002-1 1-.551 0-1-.447-1-.998 0-.553.449-1.002 1-1.002zm0 13.5c.828 0 1.5.672 1.5 1.5s-.672 1.501-1.502 1.5c-.826 0-1.498-.671-1.498-1.499 0-.829.672-1.501 1.5-1.501zm-14-14.5c1.104 0 2 .896 2 2s-.896 2-2.001 2c-1.103 0-1.999-.895-1.999-2s.896-2 2-2zm0 14c1.104 0 2 .896 2 2s-.896 2-2.001 2c-1.103 0-1.999-.895-1.999-2s.896-2 2-2z"
     id="path1"
     style="fill:#287dfd;fill-opacity:1" />
</svg>
